<mxfile host="app.diagrams.net" modified="2023-08-23T06:39:48.690Z" agent="Mozilla/5.0 (Windows NT 10.0; Win64; x64) AppleWebKit/537.36 (KHTML, like Gecko) Chrome/116.0.0.0 Safari/537.36" etag="p2v4pg34Jpuvti4gZ1pa" version="21.6.9" type="github">
  <diagram name="페이지-1" id="2IrRecfDAnbpBcJcJWYg">
    <mxGraphModel dx="1221" dy="745" grid="1" gridSize="10" guides="1" tooltips="1" connect="1" arrows="1" fold="1" page="1" pageScale="1" pageWidth="827" pageHeight="1169" math="0" shadow="0">
      <root>
        <mxCell id="0" />
        <mxCell id="1" parent="0" />
        <mxCell id="sZxDRNQJro5fTzlpbOL2-1" value="Actor" style="shape=umlActor;verticalLabelPosition=bottom;verticalAlign=top;html=1;outlineConnect=0;" vertex="1" parent="1">
          <mxGeometry x="50" y="405" width="30" height="60" as="geometry" />
        </mxCell>
        <mxCell id="sZxDRNQJro5fTzlpbOL2-3" value="관리자페이지" style="swimlane;whiteSpace=wrap;html=1;" vertex="1" parent="1">
          <mxGeometry x="120" y="230" width="360" height="310" as="geometry" />
        </mxCell>
        <mxCell id="sZxDRNQJro5fTzlpbOL2-4" value="로그인" style="ellipse;whiteSpace=wrap;html=1;" vertex="1" parent="sZxDRNQJro5fTzlpbOL2-3">
          <mxGeometry x="40" y="50" width="120" height="40" as="geometry" />
        </mxCell>
        <mxCell id="sZxDRNQJro5fTzlpbOL2-5" value="공지사항 목록" style="ellipse;whiteSpace=wrap;html=1;" vertex="1" parent="sZxDRNQJro5fTzlpbOL2-3">
          <mxGeometry x="40" y="110" width="120" height="40" as="geometry" />
        </mxCell>
        <mxCell id="sZxDRNQJro5fTzlpbOL2-6" value="메인" style="ellipse;whiteSpace=wrap;html=1;" vertex="1" parent="sZxDRNQJro5fTzlpbOL2-3">
          <mxGeometry x="40" y="170" width="120" height="40" as="geometry" />
        </mxCell>
        <mxCell id="sZxDRNQJro5fTzlpbOL2-9" value="상품목록" style="ellipse;whiteSpace=wrap;html=1;" vertex="1" parent="sZxDRNQJro5fTzlpbOL2-3">
          <mxGeometry x="40" y="230" width="120" height="40" as="geometry" />
        </mxCell>
        <mxCell id="sZxDRNQJro5fTzlpbOL2-11" value="" style="endArrow=none;html=1;rounded=0;entryX=0;entryY=0.5;entryDx=0;entryDy=0;fontStyle=1;exitX=1;exitY=0.3333333333333333;exitDx=0;exitDy=0;exitPerimeter=0;" edge="1" parent="sZxDRNQJro5fTzlpbOL2-3" source="sZxDRNQJro5fTzlpbOL2-1">
          <mxGeometry width="50" height="50" relative="1" as="geometry">
            <mxPoint x="-40" y="190" as="sourcePoint" />
            <mxPoint x="40" y="127.5" as="targetPoint" />
          </mxGeometry>
        </mxCell>
        <mxCell id="sZxDRNQJro5fTzlpbOL2-17" value="" style="endArrow=none;html=1;rounded=0;exitX=1;exitY=0.3333333333333333;exitDx=0;exitDy=0;exitPerimeter=0;" edge="1" parent="sZxDRNQJro5fTzlpbOL2-3" source="sZxDRNQJro5fTzlpbOL2-1">
          <mxGeometry width="50" height="50" relative="1" as="geometry">
            <mxPoint x="-10" y="300" as="sourcePoint" />
            <mxPoint x="40" y="250" as="targetPoint" />
          </mxGeometry>
        </mxCell>
        <mxCell id="sZxDRNQJro5fTzlpbOL2-18" value="공지사항 목록" style="ellipse;whiteSpace=wrap;html=1;" vertex="1" parent="sZxDRNQJro5fTzlpbOL2-3">
          <mxGeometry x="200" y="110" width="120" height="40" as="geometry" />
        </mxCell>
        <mxCell id="sZxDRNQJro5fTzlpbOL2-19" value="판매정보조회" style="ellipse;whiteSpace=wrap;html=1;" vertex="1" parent="sZxDRNQJro5fTzlpbOL2-3">
          <mxGeometry x="200" y="170" width="120" height="40" as="geometry" />
        </mxCell>
        <mxCell id="sZxDRNQJro5fTzlpbOL2-20" value="판매정보조회" style="ellipse;whiteSpace=wrap;html=1;" vertex="1" parent="sZxDRNQJro5fTzlpbOL2-3">
          <mxGeometry x="200" y="230" width="120" height="40" as="geometry" />
        </mxCell>
        <mxCell id="sZxDRNQJro5fTzlpbOL2-21" value="로그인 확인" style="ellipse;whiteSpace=wrap;html=1;" vertex="1" parent="sZxDRNQJro5fTzlpbOL2-3">
          <mxGeometry x="200" y="50" width="120" height="40" as="geometry" />
        </mxCell>
        <mxCell id="sZxDRNQJro5fTzlpbOL2-22" value="" style="endArrow=open;endSize=12;dashed=1;html=1;rounded=0;" edge="1" parent="sZxDRNQJro5fTzlpbOL2-3">
          <mxGeometry width="160" relative="1" as="geometry">
            <mxPoint x="160" y="70" as="sourcePoint" />
            <mxPoint x="200" y="69.5" as="targetPoint" />
          </mxGeometry>
        </mxCell>
        <mxCell id="sZxDRNQJro5fTzlpbOL2-25" value="" style="endArrow=open;endSize=12;dashed=1;html=1;rounded=0;entryX=0;entryY=0.5;entryDx=0;entryDy=0;exitX=1;exitY=0.5;exitDx=0;exitDy=0;" edge="1" parent="sZxDRNQJro5fTzlpbOL2-3" source="sZxDRNQJro5fTzlpbOL2-5" target="sZxDRNQJro5fTzlpbOL2-18">
          <mxGeometry width="160" relative="1" as="geometry">
            <mxPoint x="170" y="80" as="sourcePoint" />
            <mxPoint x="210" y="79.5" as="targetPoint" />
          </mxGeometry>
        </mxCell>
        <mxCell id="sZxDRNQJro5fTzlpbOL2-26" value="" style="endArrow=open;endSize=12;dashed=1;html=1;rounded=0;entryX=0;entryY=0.5;entryDx=0;entryDy=0;exitX=1;exitY=0.5;exitDx=0;exitDy=0;" edge="1" parent="sZxDRNQJro5fTzlpbOL2-3" source="sZxDRNQJro5fTzlpbOL2-6" target="sZxDRNQJro5fTzlpbOL2-19">
          <mxGeometry width="160" relative="1" as="geometry">
            <mxPoint x="170" y="140" as="sourcePoint" />
            <mxPoint x="210" y="140" as="targetPoint" />
          </mxGeometry>
        </mxCell>
        <mxCell id="sZxDRNQJro5fTzlpbOL2-27" value="" style="endArrow=open;endSize=12;dashed=1;html=1;rounded=0;entryX=0;entryY=0.5;entryDx=0;entryDy=0;exitX=1;exitY=0.5;exitDx=0;exitDy=0;" edge="1" parent="sZxDRNQJro5fTzlpbOL2-3" source="sZxDRNQJro5fTzlpbOL2-9" target="sZxDRNQJro5fTzlpbOL2-20">
          <mxGeometry width="160" relative="1" as="geometry">
            <mxPoint x="170" y="200" as="sourcePoint" />
            <mxPoint x="210" y="200" as="targetPoint" />
          </mxGeometry>
        </mxCell>
        <mxCell id="sZxDRNQJro5fTzlpbOL2-10" value="" style="endArrow=none;html=1;rounded=0;entryX=0;entryY=0.5;entryDx=0;entryDy=0;exitX=1;exitY=0.3333333333333333;exitDx=0;exitDy=0;exitPerimeter=0;" edge="1" parent="1" source="sZxDRNQJro5fTzlpbOL2-1" target="sZxDRNQJro5fTzlpbOL2-4">
          <mxGeometry width="50" height="50" relative="1" as="geometry">
            <mxPoint x="130" y="410" as="sourcePoint" />
            <mxPoint x="180" y="360" as="targetPoint" />
          </mxGeometry>
        </mxCell>
        <mxCell id="sZxDRNQJro5fTzlpbOL2-12" value="" style="endArrow=none;html=1;rounded=0;entryX=0;entryY=0.5;entryDx=0;entryDy=0;exitX=1;exitY=0.3333333333333333;exitDx=0;exitDy=0;exitPerimeter=0;" edge="1" parent="1" source="sZxDRNQJro5fTzlpbOL2-1">
          <mxGeometry width="50" height="50" relative="1" as="geometry">
            <mxPoint x="90" y="420" as="sourcePoint" />
            <mxPoint x="160" y="420" as="targetPoint" />
          </mxGeometry>
        </mxCell>
      </root>
    </mxGraphModel>
  </diagram>
</mxfile>
